<svg xmlns="http://www.w3.org/2000/svg" viewBox="0 0 1364 769"><path d="M 997.90 716.55 C991.58,719.82 983.12,716.92 980.47,710.58 C979.24,707.64 979.27,705.13 980.72,691.35 C982.29,676.45 982.28,674.48 980.65,658.50 C979.05,642.79 975.63,625.45 971.48,612.00 C967.40,598.78 956.57,574.59 948.21,560.00 C939.19,544.28 921.77,520.63 908.98,506.75 L 901.83 499.00 L 719.77 499.00 L 720.35 502.25 C731.11,563.29 707.88,606.00 654.14,624.01 C642.36,627.95 630.44,629.40 616.00,628.64 C588.97,627.21 563.88,615.90 538.87,593.85 C535.22,590.63 531.82,588.00 531.32,588.00 C530.82,588.00 524.61,600.49 517.52,615.75 C492.14,670.39 491.45,671.76 487.82,673.97 C486.00,675.08 483.15,675.99 481.50,675.99 C475.14,675.99 469.00,669.68 469.00,663.13 C469.00,661.50 471.98,653.71 475.62,645.83 C515.52,559.46 518.43,553.44 520.60,552.56 C529.04,549.14 534.50,550.12 538.71,555.78 C552.53,574.40 573.28,590.96 592.00,598.29 C612.59,606.36 635.43,605.63 656.15,596.23 C676.08,587.19 690.32,571.04 695.59,551.50 C698.95,538.99 698.34,517.68 694.18,502.50 L 693.36 499.50 L 629.93 498.92 C569.27,498.36 566.06,498.23 556.50,496.11 C523.74,488.85 495.54,473.54 472.50,450.50 C445.46,423.46 430.01,391.64 425.15,353.00 L 423.46 339.50 L 406.98 339.21 C361.55,338.42 321.61,354.24 290.82,385.23 C278.27,397.86 277.97,398.42 282.47,400.55 C286.72,402.57 292.15,408.43 295.13,414.20 C296.71,417.27 297.48,420.87 297.80,426.77 C298.22,434.48 298.04,435.47 295.13,441.39 C285.12,461.73 260.57,466.23 244.62,450.66 C238.24,444.43 235.00,436.83 235.00,428.09 C235.00,420.48 236.79,415.65 243.71,404.59 C274.57,355.28 317.97,325.85 373.50,316.58 C385.33,314.61 392.47,314.12 410.20,314.05 L 424.91 314.00 L 425.52 310.25 C430.84,277.74 443.71,249.99 464.94,225.28 C484.43,202.59 514.81,183.57 544.50,175.48 C558.45,171.67 571.99,170.01 589.10,170.01 L 604.69 170.00 L 606.93 162.25 C615.16,133.74 631.16,106.42 652.88,83.76 C683.20,52.15 721.10,32.30 764.50,25.32 C778.14,23.12 810.86,23.12 824.50,25.32 C859.37,30.93 892.55,45.66 918.50,67.06 C927.42,74.41 943.20,90.59 949.67,99.00 C963.92,117.54 975.89,140.89 982.03,162.13 L 984.24 169.75 L 1004.37 170.29 C1019.49,170.69 1026.93,171.35 1034.26,172.93 C1097.43,186.60 1144.62,232.66 1160.95,296.61 L 1162.00 300.72 L 1168.15 301.36 C1182.61,302.87 1202.77,301.69 1218.96,298.39 C1237.51,294.61 1261.44,284.18 1277.50,272.86 C1285.66,267.11 1310.00,244.10 1310.00,242.13 C1310.00,241.69 1308.88,240.81 1307.50,240.18 C1302.59,237.95 1296.29,231.04 1293.52,224.86 C1291.06,219.39 1290.81,217.84 1291.19,210.60 C1291.84,198.13 1297.38,189.42 1308.12,183.94 C1317.52,179.15 1331.62,179.92 1340.24,185.71 C1353.02,194.30 1357.59,212.11 1350.64,226.31 C1346.57,234.62 1335.33,250.90 1325.63,262.53 C1300.74,292.36 1264.09,313.99 1224.20,322.42 C1209.22,325.58 1187.37,327.44 1174.75,326.62 L 1165.00 325.99 L 1165.00 335.27 C1165.00,404.58 1118.80,468.39 1052.54,490.55 C1030.78,497.84 1027.39,498.22 979.75,498.72 C956.24,498.96 937.00,499.37 937.00,499.63 C937.00,499.88 939.22,502.76 941.94,506.03 C959.54,527.17 978.94,559.94 988.98,585.50 C999.12,611.31 1005.49,639.11 1005.93,659.50 C1006.03,664.45 1006.50,668.88 1006.96,669.35 C1007.42,669.81 1010.43,668.04 1013.65,665.42 C1027.56,654.07 1047.75,642.97 1064.34,637.53 C1083.92,631.12 1108.09,628.17 1113.73,631.50 C1117.79,633.90 1120.00,637.96 1120.00,643.02 C1120.00,646.57 1119.41,647.82 1116.25,650.92 C1112.52,654.59 1112.44,654.61 1099.60,655.90 C1083.83,657.50 1072.94,660.55 1058.41,667.45 C1046.30,673.19 1038.27,678.29 1027.50,687.05 C1020.01,693.14 1005.39,707.95 1002.47,712.40 C1001.50,713.89 999.44,715.75 997.90,716.55 ZM 565.03 471.88 C575.23,473.78 581.14,473.82 797.50,473.63 C1007.05,473.45 1019.92,473.34 1027.00,471.65 C1056.75,464.54 1078.35,452.73 1098.53,432.54 C1110.46,420.61 1117.25,411.42 1124.34,397.65 C1151.36,345.14 1142.41,281.94 1101.82,238.55 C1083.45,218.92 1060.37,205.57 1032.44,198.43 C1020.00,195.25 997.18,194.10 982.67,195.93 C974.10,197.01 972.70,196.95 969.47,195.42 C964.48,193.05 963.35,190.94 960.01,177.71 C953.19,150.70 940.71,126.80 922.57,106.00 C888.24,66.65 833.61,44.47 781.88,48.89 C757.46,50.98 738.62,56.27 717.50,66.98 C672.27,89.91 640.39,130.08 628.52,179.12 C624.44,195.97 622.14,197.79 607.30,195.92 C594.51,194.31 570.19,195.29 559.00,197.86 C531.89,204.09 509.33,216.55 489.99,235.95 C470.32,255.71 457.99,278.55 451.78,306.79 C448.91,319.86 448.72,346.15 451.40,359.47 C457.18,388.18 469.93,412.04 490.44,432.56 C511.36,453.48 535.99,466.46 565.03,471.88 ZM 603.10 78.72 L 599.70 81.00 L 459.60 80.92 C382.55,80.88 318.83,80.60 318.00,80.30 C317.17,80.00 315.26,78.60 313.75,77.19 C310.05,73.74 309.90,67.39 313.41,63.31 L 315.83 60.50 L 456.66 60.20 C556.76,59.99 598.60,60.23 601.29,61.01 C609.12,63.27 610.21,73.94 603.10,78.72 ZM 418.08 217.23 L 415.16 220.50 L 284.33 220.72 C276.98,220.73 270.03,220.74 263.45,220.75 C157.70,220.94 148.99,220.96 146.50,217.03 C146.12,216.43 145.89,215.75 145.48,214.95 C142.58,209.35 146.01,201.39 151.54,200.87 C152.62,200.77 212.58,200.75 284.80,200.84 L 416.09 201.00 L 418.55 203.45 C422.13,207.04 421.94,212.92 418.08,217.23 ZM 263.65 639.07 C260.62,640.92 257.70,640.99 186.50,640.99 C115.86,640.99 112.36,640.91 109.42,639.11 C103.12,635.27 102.57,626.91 108.33,622.60 C111.12,620.52 111.72,620.50 185.06,620.23 C248.55,620.00 259.47,620.17 262.52,621.45 C269.89,624.52 270.55,634.87 263.65,639.07 ZM 435.01 499.33 C432.46,500.84 425.96,501.00 365.85,501.00 C301.92,500.99 299.38,500.92 296.31,499.05 C290.16,495.30 289.18,489.07 293.92,483.77 L 296.84 480.50 L 361.67 480.20 C397.33,480.03 428.47,480.18 430.88,480.53 C436.56,481.35 440.00,484.70 440.00,489.41 C440.00,494.14 438.39,497.34 435.01,499.33 ZM 241.08 357.23 L 238.16 360.50 L 172.83 360.72 C171.29,360.73 169.78,360.73 168.30,360.74 C111.30,360.93 103.72,360.96 100.83,357.29 C100.31,356.63 99.94,355.85 99.47,354.94 C97.46,351.05 98.12,346.56 101.19,343.30 L 103.35 341.00 L 239.85 341.00 L 241.93 343.63 C245.04,347.59 244.69,353.19 241.08,357.23 ZM 404.47 637.90 L 400.93 641.00 L 322.80 641.00 L 319.40 637.60 C315.78,633.98 315.04,630.21 317.07,625.74 C319.43,620.57 319.79,620.52 359.50,620.19 C379.85,620.03 398.01,620.17 399.86,620.51 C405.05,621.47 408.00,625.04 408.00,630.35 C408.00,634.18 407.52,635.22 404.47,637.90 ZM 90.38 219.62 C85.25,221.76 19.72,221.61 15.50,219.45 C11.16,217.23 10.00,215.21 10.00,209.88 C10.00,205.96 10.45,204.79 12.63,203.07 C15.20,201.06 16.34,201.00 53.48,201.00 C55.44,201.00 57.31,201.00 59.08,201.00 C86.56,200.99 92.17,200.99 94.31,203.71 C95.00,204.59 95.33,205.74 95.91,207.27 C97.51,211.48 94.67,217.82 90.38,219.62 Z" fill="black"/></svg>
